<svg xmlns="http://www.w3.org/2000/svg" width="57" height="57" viewBox="0 0 57 57">
    <g fill="none" fill-rule="evenodd">
        <path fill="#194180" fill-rule="nonzero" d="M2.206 41.97a15.676 15.676 0 0 1 28.708-8.708 1 1 0 0 0 1.662-1.112 17.676 17.676 0 0 0-32.37 9.82 1 1 0 0 0 2 0zM8.38 6.918a17.919 17.919 0 0 0 12.9 5.48c2.439 0 4.854-.496 7.095-1.461a1 1 0 1 0-.79-1.837 15.916 15.916 0 0 1-6.305 1.297A15.92 15.92 0 0 1 9.82 5.53a1 1 0 1 0-1.44 1.389z"/>
        <rect width="18.529" height="29.647" x="38.265" y="27.147" fill="#0064DE" rx="1.5"/>
        <path fill="#194180" fill-rule="nonzero" d="M17.882 22.588c6.181 0 11.192-5.01 11.192-11.19 0-6.182-5.01-11.192-11.192-11.192-6.18 0-11.19 5.01-11.19 11.191 0 6.18 5.01 11.191 11.19 11.191zm0-2a9.191 9.191 0 1 1 0-18.382 9.191 9.191 0 0 1 0 18.382z"/>
        <path fill="#FFF" fill-rule="nonzero" d="M47.53 47.456a1.926 1.926 0 1 0 0 3.853 1.926 1.926 0 0 0 0-3.853z"/>
    </g>
</svg>
