<svg xmlns="http://www.w3.org/2000/svg" width="68" height="56" viewBox="0 0 68 56">
    <g fill="none" fill-rule="evenodd">
        <path fill="#0064DE" d="M39.784 16.445c5.883 4.067 13.528 13.859 13.528 22.68 0 8.949-9.663 16.2-19.407 16.2s-19.408-7.251-19.408-16.2c0-8.821 7.645-18.613 13.528-22.68L23.554 5.77a2.596 2.596 0 0 1 1.196-3.657 29.28 29.28 0 0 1 18.295 0 2.59 2.59 0 0 1 1.21 3.657l-4.47 10.676z"/>
        <path fill="#212B45" fill-rule="nonzero" d="M28.025 17.445h11.76a1 1 0 0 0 0-2h-11.76a1 1 0 0 0 0 2z"/>
        <path fill="#194180" fill-rule="nonzero" d="M10.443 20.486A22.644 22.644 0 0 0 .56 38.402c0 8.975 3.758 15.763 11.78 15.763a1 1 0 0 0 0-2c-6.6 0-9.78-5.746-9.78-13.728a20.628 20.628 0 0 1 9.816-16.82 1 1 0 0 0 .298-1.42l-3.634-5.25a1.163 1.163 0 0 1-.074-1.2c.2-.382.594-.621 1.024-.622h6.664a1 1 0 0 0 0-2H9.989a3.156 3.156 0 0 0-2.795 1.696 3.163 3.163 0 0 0 .201 3.263l3.048 4.402z"/>
        <g fill="#FFF" fill-rule="nonzero">
            <path d="M28.948 41.39a5.95 5.95 0 0 0 4.971 2.348c2.997.001 5.553-1.92 5.553-4.45 0-2.53-2.555-4.447-5.592-4.447-2.035 0-3.59-1.17-3.59-2.452 0-1.28 1.556-2.45 3.59-2.45a3.962 3.962 0 0 1 3.34 1.556 1 1 0 0 0 1.592-1.209 5.94 5.94 0 0 0-4.973-2.345c-2.994-.001-5.549 1.918-5.549 4.448 0 2.53 2.554 4.452 5.59 4.452 2.037 0 3.592 1.166 3.592 2.447 0 1.281-1.557 2.451-3.592 2.451a3.97 3.97 0 0 1-3.34-1.558 1 1 0 1 0-1.592 1.21z"/>
            <path d="M32.88 42.74v2.296a1 1 0 1 0 2 0v-2.297a1 1 0 1 0-2 0zM32.88 26.641v2.299a1 1 0 1 0 2 0V26.64a1 1 0 1 0-2 0z"/>
        </g>
        <path fill="#194180" fill-rule="nonzero" d="M57.366 20.486l3.048-4.402a3.163 3.163 0 0 0 .201-3.263 3.156 3.156 0 0 0-2.794-1.696h-6.665a1 1 0 0 0 0 2h6.664c.429 0 .823.24 1.023.622.2.382.171.845-.074 1.2l-3.634 5.25a1 1 0 0 0 .299 1.42 20.641 20.641 0 0 1 9.817 16.856c0 7.946-3.182 13.692-9.783 13.692a1 1 0 0 0 0 2c8.024 0 11.782-6.788 11.782-15.728a22.66 22.66 0 0 0-9.884-17.95z"/>
    </g>
</svg>
