<svg xmlns="http://www.w3.org/2000/svg" xmlns:xlink="http://www.w3.org/1999/xlink" width="54" height="57" viewBox="0 0 54 57">
    <defs>
        <path id="a" d="M.507 28.05L13.61 39.27l5.84 3.508 5.512-2.543 13.14-10.63 2.09-1.496V0L1.106.014v23.23z"/>
    </defs>
    <g fill="none" fill-rule="evenodd">
        <path fill="#194180" fill-rule="nonzero" d="M35.582 37.9l7.256 7.264a1 1 0 0 0 1.415-1.413l-7.256-7.264a1 1 0 1 0-1.415 1.413zM16.798 36.487L9.542 43.75a1 1 0 1 0 1.415 1.413l7.256-7.264a1 1 0 1 0-1.415-1.413z"/>
        <g transform="translate(6.505)">
            <mask id="b" fill="#fff">
                <use xlink:href="#a"/>
            </mask>
            <path fill="#0064DE" fill-rule="nonzero" d="M39.678 31.542V4.507A4.49 4.49 0 0 0 35.191.014H5.594a4.49 4.49 0 0 0-4.488 4.493v27.035c0 .23.102.45.277.6 10.104 8.607 16.293 12.84 19.01 12.84 1.529 0 3.315-.458 5.124-1.56.553-.337 2.908-2.545 3.595-3.089 1.646-1.302 5.068-4.027 10.269-8.175a.79.79 0 0 0 .297-.616z" mask="url(#b)"/>
            <g fill="#FFF" fill-rule="nonzero" mask="url(#b)">
                <path d="M20.09 23.69a6.483 6.483 0 0 0 5.418 2.555c3.27 0 6.048-2.086 6.048-4.819s-2.772-4.817-6.078-4.817c-2.307 0-4.086-1.336-4.086-2.822s1.778-2.82 4.086-2.82c1.502-.06 2.9.6 3.786 1.765a1 1 0 0 0 1.593-1.21 6.476 6.476 0 0 0-5.42-2.554c-3.267-.001-6.045 2.084-6.045 4.819s2.778 4.822 6.086 4.822c2.306 0 4.078 1.332 4.078 2.817 0 1.484-1.78 2.82-4.088 2.82-1.502.059-2.9-.6-3.787-1.766a1 1 0 1 0-1.592 1.21z"/>
                <path d="M24.478 7.421v2.546a1 1 0 0 0 2 0V7.421a1 1 0 1 0-2 0zM24.478 25.562v2.546a1 1 0 0 0 2 0v-2.546a1 1 0 1 0-2 0zM9.293 10.273h3.7a1 1 0 1 0 0-2h-3.7a1 1 0 1 0 0 2zM9.293 17.68h3.7a1 1 0 1 0 0-2h-3.7a1 1 0 1 0 0 2zM9.293 25.088h3.7a1 1 0 0 0 0-2h-3.7a1 1 0 1 0 0 2z"/>
            </g>
        </g>
        <path fill="#194180" fill-rule="nonzero" d="M49.173 25.687a2.848 2.848 0 0 1 4.621 2.233v23.95a4.702 4.702 0 0 1-4.7 4.703H4.7A4.702 4.702 0 0 1 0 51.87V27.919a2.848 2.848 0 1 1 4.621-2.232l18.324 14.55a6.392 6.392 0 0 0 7.9.003l18.328-14.553zm1.244 1.567L32.086 41.809a8.394 8.394 0 0 1-10.38-.003L3.376 27.254A.848.848 0 0 0 2 27.92v23.95a2.702 2.702 0 0 0 2.7 2.703h44.395c1.49 0 2.7-1.21 2.7-2.703V27.92a.851.851 0 0 0-1.378-.666z"/>
    </g>
</svg>
