<svg xmlns="http://www.w3.org/2000/svg" width="85" height="140" viewBox="0 0 85 140">
    <g fill="#FFF" fill-rule="evenodd">
        <g transform="translate(0 .358)">
            <ellipse cx="1.535" cy="1.564" rx="1.535" ry="1.564"/>
            <ellipse cx="15.13" cy="1.564" rx="1.535" ry="1.564"/>
            <ellipse cx="28.726" cy="1.564" rx="1.535" ry="1.564"/>
            <ellipse cx="42.321" cy="1.564" rx="1.535" ry="1.564"/>
            <ellipse cx="55.916" cy="1.564" rx="1.535" ry="1.564"/>
            <ellipse cx="69.512" cy="1.564" rx="1.535" ry="1.564"/>
            <ellipse cx="83.107" cy="1.564" rx="1.535" ry="1.564"/>
        </g>
        <g transform="translate(0 13.654)">
            <ellipse cx="1.535" cy="1.564" rx="1.535" ry="1.564"/>
            <ellipse cx="15.13" cy="1.564" rx="1.535" ry="1.564"/>
            <ellipse cx="28.726" cy="1.564" rx="1.535" ry="1.564"/>
            <ellipse cx="42.321" cy="1.564" rx="1.535" ry="1.564"/>
            <ellipse cx="55.916" cy="1.564" rx="1.535" ry="1.564"/>
            <ellipse cx="69.512" cy="1.564" rx="1.535" ry="1.564"/>
            <ellipse cx="83.107" cy="1.564" rx="1.535" ry="1.564"/>
        </g>
        <g transform="translate(0 26.95)">
            <ellipse cx="1.535" cy="1.564" rx="1.535" ry="1.564"/>
            <ellipse cx="15.13" cy="1.564" rx="1.535" ry="1.564"/>
            <ellipse cx="28.726" cy="1.564" rx="1.535" ry="1.564"/>
            <ellipse cx="42.321" cy="1.564" rx="1.535" ry="1.564"/>
            <ellipse cx="55.916" cy="1.564" rx="1.535" ry="1.564"/>
            <ellipse cx="69.512" cy="1.564" rx="1.535" ry="1.564"/>
            <ellipse cx="83.107" cy="1.564" rx="1.535" ry="1.564"/>
        </g>
        <g transform="translate(0 41.028)">
            <ellipse cx="1.535" cy="1.564" rx="1.535" ry="1.564"/>
            <ellipse cx="15.13" cy="1.564" rx="1.535" ry="1.564"/>
            <ellipse cx="28.726" cy="1.564" rx="1.535" ry="1.564"/>
            <ellipse cx="42.321" cy="1.564" rx="1.535" ry="1.564"/>
            <ellipse cx="55.916" cy="1.564" rx="1.535" ry="1.564"/>
            <ellipse cx="69.512" cy="1.564" rx="1.535" ry="1.564"/>
            <ellipse cx="83.107" cy="1.564" rx="1.535" ry="1.564"/>
        </g>
        <g transform="translate(0 54.324)">
            <ellipse cx="1.535" cy="1.564" rx="1.535" ry="1.564"/>
            <ellipse cx="15.13" cy="1.564" rx="1.535" ry="1.564"/>
            <ellipse cx="28.726" cy="1.564" rx="1.535" ry="1.564"/>
            <ellipse cx="42.321" cy="1.564" rx="1.535" ry="1.564"/>
            <ellipse cx="55.916" cy="1.564" rx="1.535" ry="1.564"/>
            <ellipse cx="69.512" cy="1.564" rx="1.535" ry="1.564"/>
            <ellipse cx="83.107" cy="1.564" rx="1.535" ry="1.564"/>
        </g>
        <g transform="translate(0 68.403)">
            <ellipse cx="1.535" cy="1.564" rx="1.535" ry="1.564"/>
            <ellipse cx="15.13" cy="1.564" rx="1.535" ry="1.564"/>
            <ellipse cx="28.726" cy="1.564" rx="1.535" ry="1.564"/>
            <ellipse cx="42.321" cy="1.564" rx="1.535" ry="1.564"/>
            <ellipse cx="55.916" cy="1.564" rx="1.535" ry="1.564"/>
            <ellipse cx="69.512" cy="1.564" rx="1.535" ry="1.564"/>
            <ellipse cx="83.107" cy="1.564" rx="1.535" ry="1.564"/>
        </g>
        <g transform="translate(0 81.699)">
            <ellipse cx="1.535" cy="1.564" rx="1.535" ry="1.564"/>
            <ellipse cx="15.13" cy="1.564" rx="1.535" ry="1.564"/>
            <ellipse cx="28.726" cy="1.564" rx="1.535" ry="1.564"/>
            <ellipse cx="42.321" cy="1.564" rx="1.535" ry="1.564"/>
            <ellipse cx="55.916" cy="1.564" rx="1.535" ry="1.564"/>
            <ellipse cx="69.512" cy="1.564" rx="1.535" ry="1.564"/>
            <ellipse cx="83.107" cy="1.564" rx="1.535" ry="1.564"/>
        </g>
        <g transform="translate(0 94.995)">
            <ellipse cx="1.535" cy="1.564" rx="1.535" ry="1.564"/>
            <ellipse cx="15.13" cy="1.564" rx="1.535" ry="1.564"/>
            <ellipse cx="28.726" cy="1.564" rx="1.535" ry="1.564"/>
            <ellipse cx="42.321" cy="1.564" rx="1.535" ry="1.564"/>
            <ellipse cx="55.916" cy="1.564" rx="1.535" ry="1.564"/>
            <ellipse cx="69.512" cy="1.564" rx="1.535" ry="1.564"/>
            <ellipse cx="83.107" cy="1.564" rx="1.535" ry="1.564"/>
        </g>
        <g transform="translate(0 109.073)">
            <ellipse cx="1.535" cy="1.564" rx="1.535" ry="1.564"/>
            <ellipse cx="15.13" cy="1.564" rx="1.535" ry="1.564"/>
            <ellipse cx="28.726" cy="1.564" rx="1.535" ry="1.564"/>
            <ellipse cx="42.321" cy="1.564" rx="1.535" ry="1.564"/>
            <ellipse cx="55.916" cy="1.564" rx="1.535" ry="1.564"/>
            <ellipse cx="69.512" cy="1.564" rx="1.535" ry="1.564"/>
            <ellipse cx="83.107" cy="1.564" rx="1.535" ry="1.564"/>
        </g>
        <g transform="translate(0 122.37)">
            <ellipse cx="1.535" cy="1.564" rx="1.535" ry="1.564"/>
            <ellipse cx="15.13" cy="1.564" rx="1.535" ry="1.564"/>
            <ellipse cx="28.726" cy="1.564" rx="1.535" ry="1.564"/>
            <ellipse cx="42.321" cy="1.564" rx="1.535" ry="1.564"/>
            <ellipse cx="55.916" cy="1.564" rx="1.535" ry="1.564"/>
            <ellipse cx="69.512" cy="1.564" rx="1.535" ry="1.564"/>
            <ellipse cx="83.107" cy="1.564" rx="1.535" ry="1.564"/>
        </g>
        <g transform="translate(0 136.447)">
            <ellipse cx="1.535" cy="1.564" rx="1.535" ry="1.564"/>
            <ellipse cx="15.13" cy="1.564" rx="1.535" ry="1.564"/>
            <ellipse cx="28.726" cy="1.564" rx="1.535" ry="1.564"/>
            <ellipse cx="42.321" cy="1.564" rx="1.535" ry="1.564"/>
            <ellipse cx="55.916" cy="1.564" rx="1.535" ry="1.564"/>
            <ellipse cx="69.512" cy="1.564" rx="1.535" ry="1.564"/>
            <ellipse cx="83.107" cy="1.564" rx="1.535" ry="1.564"/>
        </g>
    </g>
</svg>
