<svg xmlns="http://www.w3.org/2000/svg" width="56" height="56" viewBox="0 0 56 56">
    <g fill="#0064DE" fill-rule="nonzero">
        <path d="M49.75 36.75v7a1 1 0 0 0 2 0v-7a1 1 0 0 0-2 0zM6.25 43.75v-24.5a2.5 2.5 0 0 1 2.5-2.5h8.75a1 1 0 0 0 0-2H8.75a4.5 4.5 0 0 0-4.5 4.5v24.5a1 1 0 0 0 2 0z"/>
        <path d="M33.161 43.254a5.944 5.944 0 0 1-10.322 0 1 1 0 0 0-.868-.504H1.75a1 1 0 0 0-1 1v3.5a8 8 0 0 0 8 8h38.5a8 8 0 0 0 8-8v-3.5a1 1 0 0 0-1-1H34.03a1 1 0 0 0-.869.504zM53.25 44.75v2.5a6 6 0 0 1-6 6H8.75a6 6 0 0 1-6-6v-2.5h18.666a7.944 7.944 0 0 0 13.168 0H53.25zM24.74 22.873l-4.607 9.352c-.38.773.33 1.633 1.16 1.406l10.628-2.902c.93.5 1.908.905 2.92 1.208 8.398 2.323 17.085-2.51 19.533-10.85C56.81 12.785 52.169 4.066 43.94 1.442a1.108 1.108 0 0 0-.116-.041 15.847 15.847 0 0 0-19.083 21.472zM43.233 3.316c7.257 2.255 11.363 9.915 9.223 17.207-2.14 7.292-9.735 11.518-17.06 9.493a13.651 13.651 0 0 1-2.847-1.227 1 1 0 0 0-.76-.097l-8.88 2.425 3.835-7.783a1 1 0 0 0 .009-.867 13.847 13.847 0 0 1 16.396-19.18l.084.03z"/>
        <path d="M36.016 13.2a3.375 3.375 0 1 1 3.375 3.375 1 1 0 1 0 0 2 5.375 5.375 0 1 0-5.375-5.375 1 1 0 0 0 2 0zM37.516 23.7a1.875 1.875 0 1 0 3.75 0 1.875 1.875 0 0 0-3.75 0z"/>
    </g>
</svg>
