<svg xmlns="http://www.w3.org/2000/svg" width="160" height="47" viewBox="0 0 160 47">
    <g fill="#0A1949" fill-rule="evenodd">
        <path d="M71.39 22.723v-5.302c0-.494-.028-.889-.084-1.183-.055-.295-.166-.53-.334-.704-.167-.176-.41-.3-.728-.371-.319-.072-.74-.132-1.266-.18v-.549h7.572v.55c-.525.047-.948.107-1.266.179-.319.072-.562.195-.729.37-.167.176-.275.41-.322.705a7.684 7.684 0 0 0-.072 1.183v12.134c0 .477.028.864.084 1.158.055.294.171.53.346.705.175.175.418.303.729.382.31.08.72.143 1.23.191v.502h-7.572v-.502a8.248 8.248 0 0 0 1.266-.155c.318-.071.561-.207.728-.406.168-.199.279-.474.335-.825.055-.35.083-.811.083-1.384v-5.303h-8.288v5.637c0 .477.028.864.083 1.158.055.294.171.53.346.705.175.175.422.303.741.382.318.08.732.143 1.242.191v.502h-7.595v-.502a8.366 8.366 0 0 0 1.289-.155c.318-.071.562-.207.729-.406.167-.199.275-.474.322-.825.048-.35.072-.811.072-1.384v-11.8c0-.494-.029-.889-.084-1.183-.056-.295-.167-.53-.334-.704-.167-.176-.41-.3-.729-.371-.319-.072-.74-.132-1.265-.18v-.549h7.595v.55c-.525.047-.947.107-1.266.179-.319.072-.561.195-.729.37-.166.176-.279.41-.334.705-.056.294-.084.689-.084 1.183v5.302h8.289zM98.726 14.984a3.472 3.472 0 0 0-.967.167 2.702 2.702 0 0 0-.836.49 6.35 6.35 0 0 0-.884.931c-.31.39-.673.888-1.087 1.493l-4.037 6.163v5.327c0 .51.032.92.096 1.23.063.31.195.553.394.728.2.176.482.295.848.359.366.063.852.103 1.457.12v.5h-8.336v-.5a10.977 10.977 0 0 0 1.481-.156c.366-.072.64-.203.823-.394.184-.191.303-.462.359-.812.055-.35.084-.82.084-1.41v-4.73l-3.56-5.23c-.684-.972-1.238-1.74-1.66-2.306-.422-.565-.784-.99-1.086-1.277-.303-.287-.578-.474-.825-.562a2.53 2.53 0 0 0-.848-.131v-.55h7.62v.55h-.669c-.844.048-1.266.302-1.266.764 0 .366.16.78.478 1.242l4.037 6.044 3.894-6.163c.254-.366.382-.7.382-1.003 0-.319-.136-.546-.406-.681s-.765-.203-1.481-.203v-.55h5.995v.55zM118.54 23.344c-.397.032-.72.084-.967.156a1.191 1.191 0 0 0-.573.334c-.136.151-.227.358-.275.621a5.665 5.665 0 0 0-.071.991v5.518c-.27.239-.669.474-1.195.705-.525.23-1.11.438-1.755.62-.645.184-1.306.327-1.983.43-.677.104-1.31.156-1.899.156-1.513 0-2.91-.247-4.192-.74a8.858 8.858 0 0 1-3.285-2.174 7.797 7.797 0 0 1-1.695-2.771c-.367-1.035-.55-2.213-.55-3.535 0-1.402.231-2.687.693-3.858.462-1.17 1.103-2.178 1.923-3.022a8.775 8.775 0 0 1 2.938-1.982c1.139-.478 2.393-.717 3.762-.717 1.242 0 2.484.207 3.726.621.526.191.932.287 1.219.287.286 0 .541-.088.764-.263a1.3 1.3 0 0 0 .454-.645h.573l.239 5.757h-.621a37.327 37.327 0 0 0-.478-1.087c-.143-.31-.29-.59-.442-.836a6.517 6.517 0 0 0-.466-.669 5.305 5.305 0 0 0-.549-.585c-1.083-1.003-2.396-1.505-3.941-1.505-.988 0-1.9.191-2.735.573a5.932 5.932 0 0 0-2.138 1.649c-.557.684-1.003 1.588-1.338 2.71a12.274 12.274 0 0 0-.501 3.524c0 1.274.167 2.417.501 3.428.335 1.01.812 1.867 1.433 2.568a6.336 6.336 0 0 0 2.258 1.624c.884.382 1.883.573 2.997.573.494 0 .96-.044 1.398-.131a5.885 5.885 0 0 0 1.158-.346c.335-.144.598-.315.789-.514.19-.2.286-.41.286-.633v-4.42c0-.493-.024-.89-.071-1.193-.048-.303-.155-.538-.323-.705-.167-.167-.41-.287-.728-.358a8.356 8.356 0 0 0-1.29-.156v-.501h6.95v.501zM140.668 23.344c-.398.032-.72.084-.968.156a1.191 1.191 0 0 0-.573.334c-.135.151-.227.358-.275.621a5.665 5.665 0 0 0-.071.991v5.518c-.27.239-.669.474-1.195.705-.525.23-1.11.438-1.755.62-.645.184-1.306.327-1.983.43-.677.104-1.31.156-1.899.156-1.513 0-2.91-.247-4.192-.74a8.858 8.858 0 0 1-3.285-2.174 7.797 7.797 0 0 1-1.695-2.771c-.367-1.035-.55-2.213-.55-3.535 0-1.402.231-2.687.693-3.858.462-1.17 1.103-2.178 1.923-3.022a8.775 8.775 0 0 1 2.938-1.982c1.139-.478 2.393-.717 3.762-.717 1.242 0 2.484.207 3.726.621.526.191.932.287 1.219.287.286 0 .541-.088.764-.263.223-.175.374-.39.454-.645h.573l.239 5.757h-.621a37.327 37.327 0 0 0-.478-1.087c-.143-.31-.29-.59-.442-.836a6.517 6.517 0 0 0-.466-.669 5.305 5.305 0 0 0-.549-.585c-1.083-1.003-2.396-1.505-3.941-1.505-.988 0-1.9.191-2.735.573a5.932 5.932 0 0 0-2.138 1.649c-.557.684-1.003 1.588-1.338 2.71a12.274 12.274 0 0 0-.501 3.524c0 1.274.167 2.417.501 3.428.335 1.01.812 1.867 1.433 2.568a6.336 6.336 0 0 0 2.258 1.624c.884.382 1.883.573 2.997.573.494 0 .96-.044 1.398-.131a5.885 5.885 0 0 0 1.158-.346c.335-.144.598-.315.789-.514.19-.2.286-.41.286-.633v-4.42c0-.493-.024-.89-.071-1.193-.048-.303-.155-.538-.323-.705-.167-.167-.41-.287-.728-.358a8.356 8.356 0 0 0-1.29-.156v-.501h6.95v.501zM158.52 32.493h-14.713v-.502a6.77 6.77 0 0 0 1.206-.167c.31-.08.55-.207.717-.382.167-.176.282-.414.346-.717s.096-.693.096-1.17V17.42c0-.478-.028-.868-.084-1.17-.056-.303-.171-.542-.347-.717-.174-.175-.418-.302-.728-.382a6.776 6.776 0 0 0-1.206-.167v-.55h14.475l.048 3.918h-.645c-.128-.621-.27-1.119-.43-1.493a1.986 1.986 0 0 0-.68-.872c-.295-.207-.686-.342-1.171-.406a14.97 14.97 0 0 0-1.875-.096h-3.679c-.366 0-.61.056-.728.168-.12.11-.18.366-.18.764v6.043h4.18c.558 0 1.012-.031 1.362-.095.35-.064.633-.187.848-.37.215-.184.378-.442.49-.777.111-.334.215-.78.31-1.338h.645v6.33h-.644a9.98 9.98 0 0 0-.31-1.373c-.113-.342-.272-.605-.48-.788-.206-.183-.485-.307-.835-.37-.35-.064-.812-.096-1.385-.096h-4.18v6.736c0 .27.015.47.047.597a.513.513 0 0 0 .167.287c.128.08.435.147.92.203.486.055 1.063.083 1.732.083h.764c.972 0 1.788-.047 2.449-.143.66-.095 1.226-.279 1.696-.55.47-.27.88-.636 1.23-1.098.35-.462.692-1.067 1.027-1.815h.788l-1.242 4.61zM34.951 36.515a1.5 1.5 0 0 1-1.5 1.5h-3.088V8.936h4.588v27.579zM21.183 24.87h4.588V13.777h-4.588v11.094zm4.588 11.645a1.5 1.5 0 0 1-1.5 1.5h-3.088v-8.68h4.588v7.18zm-9.096 0a1.5 1.5 0 0 1-1.5 1.5h-3.088V18.619h4.588v17.896zM23.475 0C10.51 0 0 10.51 0 23.476 0 36.44 10.51 46.95 23.476 46.95c12.965 0 23.475-10.51 23.475-23.476C46.951 10.51 36.441 0 23.476 0z"/>
    </g>
</svg>
