<svg xmlns="http://www.w3.org/2000/svg" xmlns:xlink="http://www.w3.org/1999/xlink" width="145" height="43" viewBox="0 0 145 43">
    <defs>
        <path id="a" d="M0 .044h42.55v42.503H0z"/>
    </defs>
    <g fill="none" fill-rule="evenodd">
        <path fill="#F7F7F7" d="M64.697 21.023v-4.8a6.03 6.03 0 0 0-.076-1.071 1.227 1.227 0 0 0-.303-.638c-.151-.158-.37-.27-.66-.335a9.23 9.23 0 0 0-1.147-.162v-.497h6.862v.497a9.264 9.264 0 0 0-1.147.162c-.289.065-.509.177-.66.335a1.168 1.168 0 0 0-.292.638 6.959 6.959 0 0 0-.066 1.07v10.985c0 .433.026.782.076 1.05.05.266.155.478.314.637.159.159.379.274.66.346.282.072.653.13 1.115.173v.454H62.51v-.454a7.54 7.54 0 0 0 1.147-.14c.29-.065.509-.188.66-.368.152-.18.253-.429.303-.746.05-.318.076-.735.076-1.254v-4.8h-7.511v5.102c0 .433.025.782.075 1.05.051.266.156.478.314.637.16.159.383.274.671.346.29.072.664.13 1.126.173v.454h-6.883v-.454c.49-.029.88-.076 1.168-.14.289-.065.51-.188.66-.368.152-.18.25-.429.293-.746.043-.318.065-.735.065-1.254V16.223c0-.447-.025-.804-.076-1.071a1.227 1.227 0 0 0-.303-.638c-.152-.158-.371-.27-.66-.335a9.242 9.242 0 0 0-1.147-.162v-.497h6.883v.497a9.251 9.251 0 0 0-1.147.162c-.289.065-.509.177-.66.335a1.234 1.234 0 0 0-.304.638 6.03 6.03 0 0 0-.075 1.07v4.801h7.511zM89.47 14.017a3.136 3.136 0 0 0-.876.151 2.44 2.44 0 0 0-.757.443c-.253.21-.52.49-.801.844-.282.353-.61.804-.985 1.352l-3.659 5.578v4.823c0 .46.029.832.087 1.113.057.281.176.5.357.66.18.158.436.266.769.324.331.058.772.093 1.32.108v.454H77.37v-.454c.563-.029 1.01-.076 1.342-.14.332-.065.581-.184.747-.357.166-.173.274-.418.324-.735.051-.318.077-.743.077-1.276v-4.282l-3.226-4.736a102.17 102.17 0 0 0-1.504-2.086c-.383-.512-.712-.898-.985-1.157-.275-.26-.524-.429-.747-.508a2.281 2.281 0 0 0-.769-.119v-.497h6.906v.497h-.607c-.764.043-1.147.274-1.147.692 0 .331.145.706.433 1.124l3.658 5.471 3.53-5.579c.23-.331.345-.634.345-.908 0-.289-.122-.494-.368-.616-.245-.123-.692-.184-1.342-.184v-.497h5.434v.497zM107.428 21.585c-.361.029-.653.076-.877.141a1.08 1.08 0 0 0-.52.302c-.122.138-.205.325-.249.563a5.137 5.137 0 0 0-.064.897v4.995c-.246.216-.606.429-1.083.638-.476.21-1.006.397-1.59.562-.585.166-1.184.296-1.798.39-.613.093-1.187.14-1.72.14-1.372 0-2.638-.223-3.8-.67a8.027 8.027 0 0 1-2.976-1.968 7.052 7.052 0 0 1-1.537-2.509c-.332-.936-.498-2.003-.498-3.2 0-1.268.21-2.432.628-3.492.419-1.06 1-1.971 1.743-2.735a7.953 7.953 0 0 1 2.662-1.795c1.032-.433 2.168-.649 3.41-.649 1.125 0 2.25.188 3.376.562.477.173.844.26 1.104.26.26 0 .491-.08.693-.238a1.18 1.18 0 0 0 .411-.584h.52l.216 5.211h-.563a33.021 33.021 0 0 0-.432-.983 7.256 7.256 0 0 0-.4-.757 5.94 5.94 0 0 0-.423-.606 4.764 4.764 0 0 0-.498-.53c-.981-.908-2.172-1.362-3.572-1.362-.895 0-1.72.173-2.478.52a5.365 5.365 0 0 0-1.937 1.491c-.506.62-.91 1.438-1.213 2.455a11.098 11.098 0 0 0-.454 3.189c0 1.153.15 2.187.454 3.103.303.915.736 1.69 1.299 2.325a5.748 5.748 0 0 0 2.046 1.47c.8.346 1.706.52 2.716.52.448 0 .87-.04 1.266-.12.397-.08.747-.184 1.05-.314.304-.13.542-.284.715-.464.173-.18.26-.372.26-.573v-4c0-.448-.022-.808-.065-1.082-.043-.274-.14-.487-.292-.638-.152-.152-.372-.26-.66-.324a7.524 7.524 0 0 0-1.17-.14v-.455h6.3v.454zM127.48 21.585c-.36.029-.653.076-.877.141a1.08 1.08 0 0 0-.519.302c-.123.138-.206.325-.25.563a5.137 5.137 0 0 0-.063.897v4.995c-.246.216-.607.429-1.083.638-.477.21-1.007.397-1.591.562-.585.166-1.183.296-1.797.39-.613.093-1.187.14-1.721.14-1.371 0-2.638-.223-3.799-.67a8.027 8.027 0 0 1-2.977-1.968 7.052 7.052 0 0 1-1.537-2.509c-.332-.936-.498-2.003-.498-3.2 0-1.268.21-2.432.628-3.492.42-1.06 1-1.971 1.743-2.735a7.953 7.953 0 0 1 2.663-1.795c1.032-.433 2.168-.649 3.41-.649 1.125 0 2.25.188 3.376.562.476.173.844.26 1.104.26.26 0 .49-.08.693-.238a1.18 1.18 0 0 0 .41-.584h.52l.217 5.211h-.563a34.144 34.144 0 0 0-.433-.983 7.255 7.255 0 0 0-.4-.757 5.941 5.941 0 0 0-.423-.606 4.764 4.764 0 0 0-.497-.53c-.982-.908-2.172-1.362-3.572-1.362-.895 0-1.721.173-2.479.52a5.365 5.365 0 0 0-1.937 1.491c-.505.62-.91 1.438-1.212 2.455a11.098 11.098 0 0 0-.455 3.189c0 1.153.151 2.187.455 3.103.303.915.735 1.69 1.298 2.325a5.748 5.748 0 0 0 2.046 1.47c.801.346 1.707.52 2.717.52.447 0 .87-.04 1.266-.12.397-.08.747-.184 1.05-.314.303-.13.541-.284.714-.464.174-.18.26-.372.26-.573v-4c0-.448-.021-.808-.065-1.082-.043-.274-.14-.487-.292-.638-.151-.152-.372-.26-.66-.324a7.524 7.524 0 0 0-1.169-.14v-.455h6.3v.454zM143.66 29.867h-13.335v-.454c.448-.029.812-.08 1.093-.151.281-.073.498-.188.65-.346.151-.159.256-.375.313-.649.058-.274.087-.627.087-1.06V16.222c0-.432-.025-.785-.075-1.06-.051-.273-.156-.489-.314-.648-.16-.158-.38-.274-.66-.346a6.147 6.147 0 0 0-1.094-.151v-.497h13.118l.043 3.546h-.584c-.115-.562-.245-1.013-.39-1.352a1.798 1.798 0 0 0-.617-.789c-.266-.187-.62-.31-1.06-.367a13.508 13.508 0 0 0-1.7-.087h-3.333c-.332 0-.553.05-.66.151-.109.101-.163.332-.163.692v5.471h3.789A7.11 7.11 0 0 0 140 20.7c.318-.058.574-.17.769-.335.195-.166.342-.4.444-.703.1-.303.194-.706.281-1.211h.585v5.73h-.585a9.001 9.001 0 0 0-.281-1.243c-.102-.31-.246-.548-.433-.714-.188-.166-.44-.277-.758-.335a7.324 7.324 0 0 0-1.255-.086h-3.789v6.097c0 .245.014.425.043.54.03.116.08.203.152.26.115.073.394.134.834.184.44.05.962.076 1.569.076h.693c.88 0 1.62-.043 2.219-.13.598-.086 1.11-.252 1.537-.497a3.748 3.748 0 0 0 1.115-.995c.317-.418.627-.966.93-1.643h.714l-1.125 4.173z"/>
        <g transform="translate(0 .408)">
            <mask id="b" fill="#fff">
                <use xlink:href="#a"/>
            </mask>
            <path fill="#F7F7F7" d="M31.674 33.1c0 .75-.608 1.358-1.36 1.358h-2.798V8.134h4.158V33.1zM19.197 22.56h4.158V12.516h-4.158V22.56zM23.355 33.1c0 .75-.61 1.358-1.36 1.358h-2.798v-7.857h4.158v6.5zm-8.322 0c0 .75-.609 1.358-1.36 1.358h-2.798V16.899h4.158V33.1zM21.275.044C9.525.044 0 9.56 0 21.296c0 11.737 9.525 21.251 21.275 21.251 11.75 0 21.274-9.514 21.274-21.251C42.55 9.559 33.024.044 21.275.044z" mask="url(#b)"/>
        </g>
    </g>
</svg>
