<svg xmlns="http://www.w3.org/2000/svg" xmlns:xlink="http://www.w3.org/1999/xlink" width="152" height="32" viewBox="0 0 152 32">
    <defs>
        <path id="a" d="M.115.05h11.83v18.07H.115z"/>
    </defs>
    <g fill="none" fill-rule="evenodd">
        <path fill="#FFF" d="M14.287 31.83h3.458V14.018h-3.459zM20.882 31.83h3.459V6.964h-3.459z"/>
        <path fill="#FFF" d="M0 0V31.68h10.707V21.387H7.248v6.835H3.459V3.459h24.855v21.134h3.459V0zM28.314 31.83h3.459v-3.807h-3.46zM107.689 21.992c-2.002 2.47-4.629 3.77-7.514 3.77-4.81 0-9.335-4.082-9.335-9.36 0-4.914 4.082-9.335 9.335-9.335 3.042 0 5.485 1.327 6.89 3.173l-2.445 1.976c-1.091-1.196-2.626-2.184-4.445-2.184-3.095 0-6.215 2.86-6.215 6.37 0 3.562 2.652 6.396 6.215 6.396 1.768 0 3.51-.832 4.55-2.002v-2.964h-4.55v-2.86h7.514v7.02zM131.504 21.992c-2.002 2.47-4.628 3.77-7.514 3.77-4.81 0-9.334-4.082-9.334-9.36 0-4.914 4.082-9.335 9.334-9.335 3.042 0 5.486 1.327 6.89 3.173l-2.444 1.976c-1.092-1.196-2.626-2.184-4.446-2.184-3.094 0-6.214 2.86-6.214 6.37 0 3.562 2.652 6.396 6.214 6.396 1.768 0 3.51-.832 4.55-2.002v-2.964h-4.55v-2.86h7.514v7.02zM60.082 25.45v-7.618h-9.178v7.618h-3.016V7.38l3.016-.001v7.593h9.178V7.379h3.016V25.45zM79.504 25.45h-3.016v-8.086l-6.344-9.985h3.38l4.472 7.437 4.472-7.437h3.38l-6.344 9.985z"/>
        <g transform="translate(139.5 7.33)">
            <mask id="b" fill="#fff">
                <use xlink:href="#a"/>
            </mask>
            <path fill="#FFF" d="M3.131 2.91v4.576h7.15v2.86h-7.15v4.915h8.815v2.86H.116L.114.05h11.7v2.86z" mask="url(#b)"/>
        </g>
    </g>
</svg>
